<?xml version="1.0" encoding="UTF-8"?> <svg xmlns="http://www.w3.org/2000/svg" width="78" height="78" viewBox="0 0 78 78" fill="none"> <circle cx="39" cy="39" r="39" fill="url(#paint0_linear)"></circle> <path fill-rule="evenodd" clip-rule="evenodd" d="M37.2837 53.5119H40.0523C40.0523 53.5119 40.8885 53.4192 41.3157 52.9514C41.7092 52.5236 41.6965 51.7178 41.6965 51.7178C41.6965 51.7178 41.6417 47.9484 43.3661 47.3936C45.0652 46.846 47.2478 51.0361 49.561 52.6476C51.3093 53.867 52.6388 53.6003 52.6388 53.6003L58.8239 53.5119C58.8239 53.5119 62.0591 53.3094 60.5244 50.728C60.3993 50.5169 59.6306 48.8184 55.926 45.3286C52.0471 41.6762 52.5671 42.2666 57.2386 35.9487C60.0831 32.1009 61.2214 29.752 60.8659 28.7451C60.5272 27.7868 58.4346 28.0406 58.4346 28.0406L51.4709 28.0834C51.4709 28.0834 50.9538 28.0121 50.5715 28.2446C50.1977 28.4727 49.9574 29.0033 49.9574 29.0033C49.9574 29.0033 48.8541 31.9811 47.3855 34.5125C44.2838 39.8564 43.0443 40.1388 42.537 39.8065C41.3578 39.0335 41.653 36.7003 41.653 35.0431C41.653 29.8647 42.4273 27.7055 40.145 27.1464C39.3889 26.961 38.831 26.8384 36.8944 26.8184C34.4097 26.7927 32.3072 26.827 31.1169 27.4188C30.3242 27.8124 29.7129 28.6895 30.0853 28.7394C30.5463 28.8022 31.5877 29.0247 32.1414 29.7877C32.8539 30.7731 32.83 32.9866 32.83 32.9866C32.83 32.9866 33.239 39.082 31.8716 39.8378C30.9328 40.3584 29.6454 39.2973 26.8811 34.4498C25.4644 31.9668 24.3949 29.2215 24.3949 29.2215C24.3949 29.2215 24.1898 28.7095 23.8216 28.4342C23.3746 28.1019 22.7521 27.9964 22.7521 27.9964L16.1341 28.0406C16.1341 28.0406 15.1405 28.0691 14.7765 28.507C14.4519 28.8963 14.7498 29.7035 14.7498 29.7035C14.7498 29.7035 19.9301 42.0027 25.7975 48.2009C31.1759 53.8855 37.2837 53.5119 37.2837 53.5119Z" fill="white"></path> <defs> <linearGradient id="paint0_linear" x1="1.49362" y1="78" x2="78.2404" y2="77.5212" gradientUnits="userSpaceOnUse"> <stop stop-color="#E07572"></stop> <stop offset="1" stop-color="#F8C349"></stop> </linearGradient> </defs> </svg> 